<?xml version="1.0" standalone="no"?>
<!DOCTYPE svg PUBLIC "-//W3C//DTD SVG 20010904//EN"
 "http://www.w3.org/TR/2001/REC-SVG-20010904/DTD/svg10.dtd">
<svg version="1.0" xmlns="http://www.w3.org/2000/svg"
 width="128.000000pt" height="128.000000pt" viewBox="0 0 128.000000 128.000000"
 preserveAspectRatio="xMidYMid meet">

<g transform="translate(0.000000,128.000000) scale(0.100000,-0.100000)"
fill="#000000" stroke="none">
<path d="M994 1049 l-71 -71 -37 16 c-56 23 -177 46 -246 46 -133 0 -277 -47
-397 -128 -68 -46 -199 -181 -228 -235 -19 -37 -19 -37 0 -74 27 -49 145 -174
208 -219 29 -21 54 -39 56 -41 3 -2 -23 -32 -57 -66 -34 -34 -62 -69 -62 -78
0 -19 20 -39 40 -39 20 0 920 900 920 921 0 19 -20 39 -40 39 -8 0 -47 -32
-86 -71z m-185 -114 l54 -17 -41 -40 -40 -41 -38 18 c-96 45 -192 28 -270 -49
-77 -78 -94 -174 -49 -270 l18 -37 -48 -49 c-47 -48 -49 -49 -76 -34 -49 25
-147 113 -190 169 -48 63 -48 59 36 153 90 100 222 179 347 207 77 18 221 13
297 -10z m-113 -145 l28 -11 -109 -109 c-60 -60 -112 -107 -116 -104 -5 3 -11
20 -15 39 -23 126 95 229 212 185z"/>
<path d="M1031 866 l-23 -25 74 -73 c41 -40 83 -85 93 -100 17 -27 17 -29 0
-55 -34 -52 -161 -168 -225 -206 -111 -64 -176 -81 -327 -81 -130 -1 -133 -2
-159 -28 l-27 -26 39 -12 c21 -6 77 -13 124 -17 150 -10 301 33 437 125 68 46
199 181 228 235 19 37 19 37 0 74 -24 44 -182 213 -199 213 -7 0 -23 -11 -35
-24z"/>
<path d="M832 667 c-17 -18 -35 -48 -38 -66 -9 -45 -71 -106 -116 -115 -35 -6
-104 -66 -92 -79 11 -11 83 -8 128 5 55 16 138 99 154 154 14 48 16 120 4 128
-5 3 -23 -9 -40 -27z"/>
</g>
</svg>
