<?xml version="1.0" standalone="no"?>
<!DOCTYPE svg PUBLIC "-//W3C//DTD SVG 20010904//EN"
 "http://www.w3.org/TR/2001/REC-SVG-20010904/DTD/svg10.dtd">
<svg version="1.0" xmlns="http://www.w3.org/2000/svg"
 width="128.000000pt" height="128.000000pt" viewBox="0 0 128.000000 128.000000"
 preserveAspectRatio="xMidYMid meet">

<g transform="translate(0.000000,128.000000) scale(0.100000,-0.100000)"
fill="#000000" stroke="none">
<path d="M575 1044 c-157 -24 -327 -124 -481 -282 -90 -92 -102 -113 -84 -146
19 -37 146 -165 217 -219 79 -60 192 -121 268 -143 79 -23 211 -23 290 0 129
38 275 134 401 264 90 92 102 113 84 146 -19 37 -146 165 -217 219 -76 58
-191 120 -260 141 -57 16 -171 27 -218 20z m233 -116 c117 -48 245 -141 337
-245 l37 -42 -38 -45 c-48 -58 -147 -140 -226 -188 -252 -154 -500 -102 -753
159 -36 37 -65 70 -65 74 0 13 131 140 192 185 74 54 142 90 218 116 80 27
214 20 298 -14z"/>
<path d="M535 866 c-91 -43 -145 -126 -145 -226 0 -183 190 -304 355 -226 91
43 144 126 145 226 0 182 -191 304 -355 226z m157 -66 c21 -6 51 -27 71 -49
64 -71 59 -170 -12 -234 -71 -64 -170 -59 -234 12 -61 68 -59 166 6 229 49 48
101 61 169 42z"/>
</g>
</svg>
